<svg width="47" height="47" viewBox="0 0 47 47" fill="none" xmlns="http://www.w3.org/2000/svg">
<path d="M26.8092 19.2773H20.1993C19.6923 19.2773 19.2812 19.6884 19.2812 20.1953V26.8047C19.2812 27.3116 19.6923 27.7227 20.1993 27.7227H26.8092C27.3162 27.7227 27.7272 27.3116 27.7272 26.8047V20.1953C27.7272 19.6884 27.3162 19.2773 26.8092 19.2773ZM25.8912 25.8867H21.1173V21.1133H25.8912V25.8867ZM43.8848 4.95703C42.1636 4.95703 40.7634 6.35712 40.7634 8.07812C40.7634 9.79913 42.1636 11.1992 43.8848 11.1992C45.6059 11.1992 47.0061 9.79913 47.0061 8.07812C47.0061 6.35712 45.6059 4.95703 43.8848 4.95703ZM43.8848 9.36328C43.176 9.36328 42.5995 8.7868 42.5995 8.07812C42.5995 7.36945 43.176 6.79297 43.8848 6.79297C44.5935 6.79297 45.17 7.36945 45.17 8.07812C45.17 8.7868 44.5935 9.36328 43.8848 9.36328ZM39.1651 7.42637C38.9925 7.25488 38.7594 7.15825 38.5161 7.1574C38.2737 7.1574 38.0368 7.25563 37.8661 7.42637C37.6948 7.599 37.5985 7.83219 37.598 8.07537C37.598 8.3168 37.6953 8.55363 37.8661 8.72438C38.039 8.89589 38.2725 8.9925 38.5161 8.99334C38.7575 8.99334 38.9944 8.89512 39.1651 8.72438C39.3359 8.55363 39.4341 8.3168 39.4341 8.07537C39.4341 7.83395 39.3359 7.59711 39.1651 7.42637Z" fill="#030510"/>
<path d="M38.1478 24.418C38.5408 25.6924 39.7295 26.6211 41.1311 26.6211C42.8523 26.6211 44.2525 25.221 44.2525 23.5C44.2525 21.779 42.8522 20.3789 41.1311 20.3789C39.7294 20.3789 38.5407 21.3076 38.1478 22.582H32.4987V15.4219C32.4987 14.915 32.0877 14.5039 31.5806 14.5039H30.1118V8.99334H35.2548C35.7619 8.99334 36.1729 8.58227 36.1729 8.07537C36.1729 7.56847 35.7619 7.1574 35.2548 7.1574H29.1937C28.6867 7.1574 28.2757 7.56847 28.2757 8.07537V14.5039H24.4199V8.85537C25.6943 8.46239 26.6232 7.27389 26.6232 5.87225C26.6232 4.15124 25.223 2.75115 23.5019 2.75115C21.7807 2.75115 20.3805 4.15124 20.3805 5.87225C20.3805 7.27389 21.3094 8.46248 22.5838 8.85537V14.5039H15.4231C14.9161 14.5039 14.5051 14.915 14.5051 15.4219V16.8906H8.99397V6.10504C10.2699 5.71298 11.2001 4.52375 11.2001 3.12109C11.2001 1.40009 9.79991 0 8.07877 0C6.35762 0 4.95743 1.40009 4.95743 3.12109C4.95743 4.52173 5.88492 5.70958 7.15788 6.10339V17.8086C7.15788 18.3155 7.56889 18.7266 8.07592 18.7266H14.5051V22.582H8.85598C8.46297 21.3076 7.27429 20.3789 5.87262 20.3789C4.15148 20.3789 2.75128 21.779 2.75128 23.5C2.75128 25.221 4.15148 26.6211 5.87262 26.6211C7.27438 26.6211 8.46306 25.6924 8.85598 24.418H14.5051V31.5781C14.5051 32.085 14.9161 32.4961 15.4231 32.4961H16.892V38.0067H11.7489C11.2419 38.0067 10.8309 38.4177 10.8309 38.9246C10.8309 39.4315 11.2419 39.8426 11.7489 39.8426H17.81C18.317 39.8426 18.7281 39.4315 18.7281 38.9246V32.4961H22.5838V38.1446C21.3094 38.5376 20.3805 39.7261 20.3805 41.1278C20.3805 42.8488 21.7807 44.2488 23.5019 44.2488C25.223 44.2488 26.6232 42.8488 26.6232 41.1278C26.6232 39.7261 25.6943 38.5375 24.4199 38.1446V32.4961H31.5806C32.0877 32.4961 32.4987 32.085 32.4987 31.5781V30.1094H38.0098V40.895C36.7339 41.287 35.8036 42.4762 35.8036 43.8789C35.8036 45.5999 37.2038 47 38.925 47C40.6461 47 42.0463 45.5999 42.0463 43.8789C42.0463 42.4783 41.1188 41.2904 39.8459 40.8966V29.1914C39.8459 28.6845 39.4349 28.2734 38.9278 28.2734H32.4987V24.418H38.1478ZM41.1311 22.2148C41.8399 22.2148 42.4164 22.7913 42.4164 23.5C42.4164 24.2087 41.8398 24.7852 41.1311 24.7852C40.4224 24.7852 39.8459 24.2087 39.8459 23.5C39.8459 22.7913 40.4224 22.2148 41.1311 22.2148ZM8.07877 4.40625C7.37004 4.40625 6.79351 3.82977 6.79351 3.12109C6.79351 2.41242 7.37004 1.83594 8.07877 1.83594C8.7875 1.83594 9.36403 2.41242 9.36403 3.12109C9.36403 3.82977 8.7875 4.40625 8.07877 4.40625ZM5.87262 24.7852C5.16389 24.7852 4.58736 24.2087 4.58736 23.5C4.58736 22.7913 5.16389 22.2148 5.87262 22.2148C6.58135 22.2148 7.15788 22.7913 7.15788 23.5C7.15788 24.2087 6.58135 24.7852 5.87262 24.7852ZM22.2166 5.87225C22.2166 5.16357 22.7931 4.58709 23.5019 4.58709C24.2106 4.58709 24.7871 5.16357 24.7871 5.87225C24.7871 6.58092 24.2106 7.1574 23.5019 7.1574C22.7931 7.1574 22.2166 6.58092 22.2166 5.87225ZM24.7871 41.1278C24.7871 41.8364 24.2106 42.4129 23.5019 42.4129C22.7931 42.4129 22.2166 41.8364 22.2166 41.1278C22.2166 40.4191 22.7931 39.8426 23.5019 39.8426C24.2106 39.8426 24.7871 40.4191 24.7871 41.1278ZM30.6626 30.6602H16.3411V16.3398H30.6626V30.6602ZM38.925 42.5938C39.6337 42.5938 40.2102 43.1702 40.2102 43.8789C40.2102 44.5876 39.6337 45.1641 38.925 45.1641C38.2162 45.1641 37.6397 44.5876 37.6397 43.8789C37.6397 43.1702 38.2162 42.5938 38.925 42.5938ZM3.12134 35.8008C1.4002 35.8008 0 37.2009 0 38.9219C0 40.6429 1.4002 42.043 3.12134 42.043C4.84249 42.043 6.24268 40.6429 6.24268 38.9219C6.24268 37.2009 4.84249 35.8008 3.12134 35.8008ZM3.12134 40.207C2.41261 40.207 1.83608 39.6305 1.83608 38.9219C1.83608 38.2132 2.41261 37.6367 3.12134 37.6367C3.83007 37.6367 4.4066 38.2132 4.4066 38.9219C4.4066 39.6305 3.83007 40.207 3.12134 40.207ZM9.14094 38.2756C8.97019 38.1049 8.73333 38.0067 8.49189 38.0067C8.25044 38.0067 8.01359 38.1048 7.84283 38.2756C7.67126 38.4481 7.57462 38.6813 7.57385 38.9246C7.57385 39.1661 7.67208 39.4029 7.84283 39.5735C8.01359 39.7443 8.25044 39.8426 8.49189 39.8426C8.73333 39.8426 8.97019 39.7444 9.14094 39.5735C9.31249 39.401 9.40913 39.1679 9.40993 38.9246C9.40993 38.6831 9.3117 38.4463 9.14094 38.2756Z" fill="#030510"/>
</svg>
